<?xml version="1.0" encoding="UTF-8"?>
<svg xmlns="http://www.w3.org/2000/svg" version="1.1" viewBox="0 0 122.88 122.88">
  <!-- Generator: Adobe Illustrator 30.3.0, SVG Export Plug-In . SVG Version: 2.1.3 Build 182)  -->
  <defs>
    <style>
      .st0 {
        isolation: isolate;
      }

      .st1 {
        fill: none;
        stroke: #000;
        stroke-miterlimit: 100;
      }
    </style>
  </defs>
  <g id="_矩形_1" data-name="矩形_1" class="st0">
    <g id="_矩形_11" data-name="矩形_1">
      <path d="M106.08,43.68c-.38-4.21-5.37-5.02-6.96-7.68-1.87-2.34-3.93-5.32-6-7.44-16.13-14.38-47.23-18.37-65.52-1.2-4.32,4.05-9.99-4.63-13.68.96-.97,3.9.63,9.07,3.12,11.52.25,4.22-7.13,4.51-3.84,15.6-9.04.69-14.56,11.79-6.24,17.52,5.33,6.09,15.17,2.94,20.64,3.36,4.47,4.81,11.08,6.51,17.28,9.36-.22-.18-.9.5-.72.72-17.95,15.53,14.07,21.5,21.12,12.72,4.41-2.26,6.42-6.61,8.16-10.56,2.77-2.58,8.34-1.36,11.04-4.32,14.95,5.01,40.61-7.15,32.64-24,6.9-7.1-.35-20.14-11.04-16.56ZM98.4,39.6h.72c.08.16.16.32.24.48,1.33,1.31,1.13,4.07.96,6.24-.27.21-.04-.03-.24.24h-1.68c.07-1.12.62-2.71.24-4.08h-.24v-1.92h-.24c.06-.57.1-.59.24-.96ZM38.63,29.41c2.18-2.11,3.63-4.92,5.86-6.96,3.26-3.51,6.59-2.8,1.77,1.18-1.52,2.02-6.33,5.37-4.34,8.11,3.1,2.99,4.73,7.81,8.73,9.27,17.2-1.86,15.55,2.73,27.87-11.94-.1-2.23-2.33-3.75-3.53-5.58-.37-.54-1.12-1.37-.53-1.93,1.94-.95,5.16,4.62,6.32,5.98,3.61,3.26,12.4,3.33,13.91,8.48-5.82-.54-12.25-9.63-17.78-1.69-11.6,8.57-3.02,9.46.92,18.95-1.67,5.41-7.69-12.59-11.91-11.04-6.43.93-16.06-1.72-18.86,5.37-2.85,4.69-4.56,10.14-5.84,15.48-.2.76-.49,2.07-1.36,2.18-1.95-.65-.07-4.77.1-6.46,1.43-5.14,3.56-9.88,6.42-14.45.67-.84,1.22-1.9.49-2.89-2.55-2.3-5.52-9.41-9.25-9.26-3.98,1.1-8.04,3.21-11.24,5.33-.78.48-1.95,1.94-2.89,1.21,1.05-4.88,10.83-7.3,15.14-9.33ZM70.55,73.06c-6.21,2.39-14.2.87-20.42-.51-1.95-.57-8.63-1.73-8.56-4.12l.03-.06c.16-.24.61-.37,1.17-.32,2.19.38,4.37,1.43,6.59,1.89,5.16,1.5,11.62,2.25,17.53,1.71,1.2-.22,6.27-.54,3.66,1.41ZM16.79,28.77l.11-.09c.51-.38,1.23-.33,2.05-.06,1.91.79,4.6,1.43,4.43,3.05-.43,1.69-1.94,2.93-2.71,4.49-.78,1.39-1.53,2.48-2.23,1.95-1.79-1.86-3.45-7.23-1.65-9.35ZM27.11,72.83c-4.62,2.45-10.98,2.3-15.79.26-6.52-2.53-9.38-10.48-2.14-14.1l.14-.07c3.47-1.53,4.92-1.62,6.9,2.06,1.68,2.53,3.91,5.03,6.24,6.95.83.74,1.64,1.4,2.51,2.06.76.79,3.06,1.68,2.13,2.82ZM21.11,53.63c-1.24-2.08-3.09-5.16-1.96-7.56l.06-.05c.48-.36,1.1.85,1.3,1.39,1.65,5.15,5.18,9.42,9.21,12.89,2.5,2.27,5.45,3.65,8.04,5.76,1.47,1.85-1.06,1.7-2.14.92-5.71-3.29-11-7.65-14.52-13.34ZM44.77,82.98c-2.04-.69-3.67-1.34-5.67-2.3-3.37-1.75-6.9-3.34-9.59-6.04h-.72c.15-.58.25-.53.48-.96.99.39,1.7.68,2.69,1.17,5.04,2.92,10.43,4.63,15.68,6.73.89.61.76,1.63-.32,1.85-.85.19-1.73-.18-2.55-.46ZM89.52,82.56c-3,.61-6.78-2.69-8.88-.96,4.13,2.57-6.04,3.5-8.4,2.64-1.39,4.04-2.88,7.61-5.52,10.8-10.1,10.05-37.43,6.36-18.72-9.84,2.66-3.26,2.41-3.14,7.44-2.64,7.98,1.41,17.59,1.19,22.56-3.84-4.28-8.77-2.06-19.49,5.76-25.92,13.03-9.04,31.46-3.11,32.4,13.2-1.35,12.1-14.11,17.55-26.64,16.56ZM114.82,55.33c-1.57-2.54-3.24-4.24-5.83-5.83-.82-.52-1.76-1.1-2.28-1.91l-.08-.13c-1.08-2.96,4.14-2.64,5.73-1.87,3.95,1.58,6.64,6.85,4.55,10.91-.81.96-1.6-.52-2.09-1.17ZM108.61,61.39c-.21,2.53,2.58,5.67,4.37,3.37.94-1.36.6-3.45-.41-4.66l-.1-.11c-1.23-1.48-3.84-.53-3.87,1.4ZM93.95,66.73l-.13-.05c-4.9-1.67-5.94,6.86-.98,6.98,3.66-.16,4.13-5.48,1.11-6.93ZM108.39,70.16l-.09.07c-.75.96-1.18,2.53-2.46,3.02-.77.32-1.87.24-2.6-.06-.71-.31-1.8-.53-1.69.53.11.53.71.9,1.26,1.05,1.52.52,3.17.3,4.42-.62.98-.85,2.1-1.88,1.97-3.3-.02-.43-.39-.94-.8-.69Z"/>
      <path class="st1" d="M106.08,43.68c-.38-4.21-5.37-5.02-6.96-7.68-1.87-2.34-3.93-5.32-6-7.44-16.13-14.38-47.23-18.37-65.52-1.2-4.32,4.05-9.99-4.63-13.68.96-.97,3.9.63,9.07,3.12,11.52.25,4.22-7.13,4.51-3.84,15.6-9.04.69-14.56,11.79-6.24,17.52,5.33,6.09,15.17,2.94,20.64,3.36,4.47,4.81,11.08,6.51,17.28,9.36-.22-.18-.9.5-.72.72-17.95,15.53,14.07,21.5,21.12,12.72,4.41-2.26,6.42-6.61,8.16-10.56,2.77-2.58,8.34-1.36,11.04-4.32,14.95,5.01,40.61-7.15,32.64-24,6.9-7.1-.35-20.14-11.04-16.56ZM98.4,39.6h.72c.08.16.16.32.24.48,1.33,1.31,1.13,4.07.96,6.24-.27.21-.04-.03-.24.24h-1.68c.07-1.12.62-2.71.24-4.08h-.24v-1.92h-.24c.06-.57.1-.59.24-.96ZM38.63,29.41c2.18-2.11,3.63-4.92,5.86-6.96,3.26-3.51,6.59-2.8,1.77,1.18-1.52,2.02-6.33,5.37-4.34,8.11,3.1,2.99,4.73,7.81,8.73,9.27,17.2-1.86,15.55,2.73,27.87-11.94-.1-2.23-2.33-3.75-3.53-5.58-.37-.54-1.12-1.37-.53-1.93,1.94-.95,5.16,4.62,6.32,5.98,3.61,3.26,12.4,3.33,13.91,8.48-5.82-.54-12.25-9.63-17.78-1.69-11.6,8.57-3.02,9.46.92,18.95-1.67,5.41-7.69-12.59-11.91-11.04-6.43.93-16.06-1.72-18.86,5.37-2.85,4.69-4.56,10.14-5.84,15.48-.2.76-.49,2.07-1.36,2.18-1.95-.65-.07-4.77.1-6.46,1.43-5.14,3.56-9.88,6.42-14.45.67-.84,1.22-1.9.49-2.89-2.55-2.3-5.52-9.41-9.25-9.26-3.98,1.1-8.04,3.21-11.24,5.33-.78.48-1.95,1.94-2.89,1.21,1.05-4.88,10.83-7.3,15.14-9.33ZM70.55,73.06c-6.21,2.39-14.2.87-20.42-.51-1.95-.57-8.63-1.73-8.56-4.12l.03-.06c.16-.24.61-.37,1.17-.32,2.19.38,4.37,1.43,6.59,1.89,5.16,1.5,11.62,2.25,17.53,1.71,1.2-.22,6.27-.54,3.66,1.41ZM16.79,28.77l.11-.09c.51-.38,1.23-.33,2.05-.06,1.91.79,4.6,1.43,4.43,3.05-.43,1.69-1.94,2.93-2.71,4.49-.78,1.39-1.53,2.48-2.23,1.95-1.79-1.86-3.45-7.23-1.65-9.35ZM27.11,72.83c-4.62,2.45-10.98,2.3-15.79.26-6.52-2.53-9.38-10.48-2.14-14.1l.14-.07c3.47-1.53,4.92-1.62,6.9,2.06,1.68,2.53,3.91,5.03,6.24,6.95.83.74,1.64,1.4,2.51,2.06.76.79,3.06,1.68,2.13,2.82ZM21.11,53.63c-1.24-2.08-3.09-5.16-1.96-7.56l.06-.05c.48-.36,1.1.85,1.3,1.39,1.65,5.15,5.18,9.42,9.21,12.89,2.5,2.27,5.45,3.65,8.04,5.76,1.47,1.85-1.06,1.7-2.14.92-5.71-3.29-11-7.65-14.52-13.34ZM44.77,82.98c-2.04-.69-3.67-1.34-5.67-2.3-3.37-1.75-6.9-3.34-9.59-6.04h-.72c.15-.58.25-.53.48-.96.99.39,1.7.68,2.69,1.17,5.04,2.92,10.43,4.63,15.68,6.73.89.61.76,1.63-.32,1.85-.85.19-1.73-.18-2.55-.46ZM89.52,82.56c-3,.61-6.78-2.69-8.88-.96,4.13,2.57-6.04,3.5-8.4,2.64-1.39,4.04-2.88,7.61-5.52,10.8-10.1,10.05-37.43,6.36-18.72-9.84,2.66-3.26,2.41-3.14,7.44-2.64,7.98,1.41,17.59,1.19,22.56-3.84-4.28-8.77-2.06-19.49,5.76-25.92,13.03-9.04,31.46-3.11,32.4,13.2-1.35,12.1-14.11,17.55-26.64,16.56ZM114.82,55.33c-1.57-2.54-3.24-4.24-5.83-5.83-.82-.52-1.76-1.1-2.28-1.91l-.08-.13c-1.08-2.96,4.14-2.64,5.73-1.87,3.95,1.58,6.64,6.85,4.55,10.91-.81.96-1.6-.52-2.09-1.17ZM108.61,61.39c-.21,2.53,2.58,5.67,4.37,3.37.94-1.36.6-3.45-.41-4.66l-.1-.11c-1.23-1.48-3.84-.53-3.87,1.4ZM93.95,66.73l-.13-.05c-4.9-1.67-5.94,6.86-.98,6.98,3.66-.16,4.13-5.48,1.11-6.93ZM108.39,70.16l-.09.07c-.75.96-1.18,2.53-2.46,3.02-.77.32-1.87.24-2.6-.06-.71-.31-1.8-.53-1.69.53.11.53.71.9,1.26,1.05,1.52.52,3.17.3,4.42-.62.98-.85,2.1-1.88,1.97-3.3-.02-.43-.39-.94-.8-.69Z"/>
    </g>
  </g>
</svg>